<?xml version="1.0" encoding="utf-8"?>
<!-- Generator: Adobe Illustrator 16.0.0, SVG Export Plug-In . SVG Version: 6.00 Build 0)  -->
<!DOCTYPE svg PUBLIC "-//W3C//DTD SVG 1.1//EN" "http://www.w3.org/Graphics/SVG/1.1/DTD/svg11.dtd">
<svg version="1.1" id="Layer_1" xmlns="http://www.w3.org/2000/svg" xmlns:xlink="http://www.w3.org/1999/xlink" x="0px" y="0px"
	 width="128px" height="128px" viewBox="0 0 128 128" enable-background="new 0 0 128 128" xml:space="preserve">
<g>
	<g>
		<path fill="#282D33" d="M106.756,112.152H0L53.384,58.64L106.756,112.152z M9.668,108.142H97.09L53.384,64.319L9.668,108.142z"/>
	</g>
	<g>
		<polygon fill="#282D33" points="7.794,92.041 4.954,89.208 54.566,39.479 81.794,66.783 78.954,69.615 54.565,45.159 		"/>
	</g>
	<g>
		<g>
			<polygon fill="#282D33" points="80.104,36.033 60.28,36.033 60.28,32.021 73.941,32.021 72.41,28.566 73.941,25.112 
				52.444,25.112 52.444,21.101 80.104,21.101 76.798,28.566 			"/>
		</g>
	</g>
	<g>
		<polygon fill="#282D33" points="116.372,63.301 112.36,63.301 112.36,46.056 95.161,46.056 95.161,42.044 116.372,42.044 		"/>
	</g>
	<g>
		<polygon fill="#282D33" points="22.968,112.843 20.128,110.011 54.196,75.863 66.997,88.696 112.307,43.276 115.146,46.109 
			66.997,94.376 54.196,81.543 		"/>
	</g>
	<g>
		<path fill="#282D33" d="M128,112.152H56.971l35.516-35.602L128,112.152z M66.639,108.142h51.693L92.487,82.23L66.639,108.142z"/>
	</g>
	<g>
		<rect x="52.44" y="15.157" fill="#282D33" width="4.011" height="28.186"/>
	</g>
</g>
</svg>
