<?xml version="1.0" encoding="UTF-8"?>
<svg version="1.1" xmlns="http://www.w3.org/2000/svg" width="1024" height="1024">
<path d="M0 0 C337.92 0 675.84 0 1024 0 C1024 337.92 1024 675.84 1024 1024 C686.08 1024 348.16 1024 0 1024 C0 686.08 0 348.16 0 0 Z " fill="#FEFEFE" transform="translate(0,0)"/>
<path d="M0 0 C11.8380087 4.62287262 11.8380087 4.62287262 16 9 C17.59937962 14.35139785 17.40632229 19.57773818 17.25 25.09765625 C17.24215197 26.69403112 17.23848744 28.29043143 17.23876953 29.88682556 C17.22792224 33.23784714 17.18054528 36.58562574 17.10449219 39.93579102 C17.00939389 44.16223695 16.98246714 48.38539249 16.97996044 52.61279392 C16.94965284 74.82853554 16.19573023 96.71966467 6 117 C5.71785645 117.58297852 5.43571289 118.16595703 5.14501953 118.76660156 C0.74666056 127.81478736 -4.30174882 135.43073081 -11 143 C-11.53882813 143.68191406 -12.07765625 144.36382813 -12.6328125 145.06640625 C-28.83048988 165.21175877 -55.38583183 176.28598909 -80.4375 179.6875 C-108.5569928 182.14156483 -138.09658583 175.1325428 -160.359375 157.25390625 C-161.23078125 156.51011719 -162.1021875 155.76632812 -163 155 C-163.89203125 154.24589844 -164.7840625 153.49179687 -165.703125 152.71484375 C-181.93958299 138.54440212 -192.45128458 120.64179208 -199 100.25 C-199.22010742 99.57018066 -199.44021484 98.89036133 -199.66699219 98.18994141 C-200.66643557 94.89110859 -201.11614833 93.348445 -200 90 C-199.39865234 90.99966797 -199.39865234 90.99966797 -198.78515625 92.01953125 C-183.87017672 116.20141416 -163.22278377 133.38860812 -138 146 C-138.04885345 145.36487991 -138.09770691 144.72975983 -138.14804077 144.07539368 C-138.63822623 137.40975679 -138.96771762 130.74926328 -139.20849609 124.07006836 C-139.31856108 121.58618239 -139.46831053 119.10370446 -139.65966797 116.62475586 C-140.9050333 100.06539275 -140.9050333 100.06539275 -138 93 C-132.14812596 86.4497467 -123.98949529 83.21619425 -116 80 C-114.65954996 79.34776086 -113.32335808 78.68625476 -112 78 C-104.94935611 80.47566999 -98.36429178 83.75061678 -94 90 C-91.08115311 99.87766552 -92.22001632 110.78763504 -92.76403809 120.95550537 C-92.94973436 124.7953733 -93.03069874 128.63738566 -93.12109375 132.48046875 C-93.31294891 139.99283332 -93.61913489 147.49458717 -94 155 C-91.64484432 154.71507769 -89.29110566 154.42225086 -86.9375 154.125 C-86.28072266 154.04636719 -85.62394531 153.96773437 -84.94726562 153.88671875 C-80.4664808 153.31282513 -76.31648825 152.33592224 -72 151 C-72.00745743 150.34204437 -72.01491486 149.68408875 -72.02259827 149.00619507 C-72.09196339 142.0937353 -72.09728899 135.18323382 -72.06713867 128.27050781 C-72.06407603 125.69853657 -72.07678188 123.1264923 -72.10620117 120.5546875 C-72.39287646 93.70103177 -72.39287646 93.70103177 -62 82 C-61.06412488 80.67744772 -60.14338465 79.34380529 -59.25 77.9921875 C-58.13625 76.44917969 -58.13625 76.44917969 -57 74.875 C-56.59338135 74.31151855 -56.1867627 73.74803711 -55.76782227 73.16748047 C-54.51757266 71.4407498 -53.26024346 69.71944743 -52 68 C-51.57058105 67.41283203 -51.14116211 66.82566406 -50.69873047 66.22070312 C-45.30726666 58.86963006 -45.30726666 58.86963006 -43 56 C-42.67 56 -42.34 56 -42 56 C-42 82.73 -42 109.46 -42 137 C-33.79816659 130.55810211 -33.79816659 130.55810211 -26.625 123.4375 C-25.83351562 122.56996094 -25.04203125 121.70242188 -24.2265625 120.80859375 C-19.11637474 114.36258497 -17.4037152 110.17840207 -17.64453125 102.07397461 C-17.65346909 101.2078656 -17.66240692 100.34175659 -17.6716156 99.44940186 C-17.69233702 97.57781576 -17.72164295 95.70630886 -17.75866699 93.83497429 C-17.81326935 90.86043221 -17.83576672 87.88724645 -17.84863281 84.9122467 C-17.88767866 76.45764701 -17.95783303 68.00435729 -18.11279297 59.55102539 C-18.20549875 54.36824645 -18.23855307 49.18784083 -18.23495483 44.00427437 C-18.24487046 42.04230726 -18.27660305 40.08031146 -18.33169556 38.11909294 C-18.61597339 27.73922015 -18.44923203 20.03625955 -11.234375 12.06079102 C-9.6969794 10.48707266 -8.1298716 8.9653819 -6.51745605 7.46879768 C-4.12399639 5.1520861 -2.08745136 2.59275695 0 0 Z " fill="#3B7676" transform="translate(267,429)"/>
<path d="M0 0 C0 19.8 0 39.6 0 60 C-6 56 -12 52 -18 48 C-18.25136719 48.54398437 -18.50273437 49.08796875 -18.76171875 49.6484375 C-24.53872658 60.61928517 -33.02927032 70.6318675 -40.29736328 80.65185547 C-43.09837674 84.51479603 -45.89312105 88.38225881 -48.6875 92.25 C-49.22898682 92.99878418 -49.77047363 93.74756836 -50.32836914 94.51904297 C-53.22229324 98.52425851 -56.09802387 102.54138815 -58.9543457 106.57348633 C-63.72694628 113.30388307 -68.67739345 119.87227619 -73.74560547 126.38232422 C-75.01648468 128.02125875 -76.27728245 129.66747356 -77.53515625 131.31640625 C-82.8878451 138.32828436 -88.36651813 145.20988538 -94 152 C-95.93796778 150.89665456 -97.87532779 149.79224164 -99.8125 148.6875 C-100.42399902 148.34082275 -101.03549805 147.99414551 -101.66552734 147.63696289 C-105.48014659 145.46696708 -109.26098854 143.25027009 -113.01953125 140.984375 C-113.86604248 140.47946533 -114.71255371 139.97455566 -115.5847168 139.4543457 C-117.2627174 138.4523834 -118.93492657 137.44065027 -120.60083008 136.41870117 C-121.37450928 135.95955322 -122.14818848 135.50040527 -122.9453125 135.02734375 C-123.63125488 134.61218506 -124.31719727 134.19702637 -125.02392578 133.76928711 C-127.48832724 132.80989385 -128.55244142 133.08378511 -131 134 C-133.29019695 135.18326842 -135.51827368 136.40227609 -137.75 137.6875 C-138.439729 138.07977783 -139.12945801 138.47205566 -139.84008789 138.8762207 C-147.08325561 143.01168062 -154.26992764 147.24521658 -161.46582031 151.4621582 C-172.88693667 158.13649704 -184.43567321 164.57766852 -196 171 C-196.33 170.34 -196.66 169.68 -197 169 C-193.6559203 165.65255603 -190.30360822 162.31364561 -186.9453125 158.98046875 C-185.49911726 157.54165542 -184.05340855 156.10235519 -182.60791016 154.6628418 C-181.623788 153.68374233 -180.63876938 152.70554305 -179.65283203 151.72827148 C-174.46589511 146.58552665 -169.38804381 141.40850238 -164.63623047 135.85668945 C-161.74946793 132.58097637 -158.61610632 129.55545995 -155.5 126.5 C-151.03408859 122.08195707 -146.68217664 117.65622244 -142.62890625 112.8515625 C-139.28319445 109.04852319 -135.61683123 105.54301835 -132 102 C-126.32159412 103.65308855 -121.24728262 106.26370084 -116 108.9375 C-115.1234375 109.38029297 -114.246875 109.82308594 -113.34375 110.27929688 C-111.65284157 111.13366401 -109.96269856 111.98954824 -108.2734375 112.84716797 C-105.52120242 114.24279233 -102.76188839 115.62359838 -100 117 C-88.32793695 101.34657646 -77.2782093 85.25752805 -66.23583984 69.15673828 C-62.05585648 63.06724477 -57.84191369 57.00146005 -53.625 50.9375 C-52.94630859 49.96103516 -52.26761719 48.98457031 -51.56835938 47.97851562 C-50.59479492 46.57956055 -50.59479492 46.57956055 -49.6015625 45.15234375 C-48.98571289 44.26659668 -48.36986328 43.38084961 -47.73535156 42.46826172 C-46.19106294 40.27175666 -44.61328444 38.10496113 -43.0234375 35.94140625 C-40.81107967 33.32040222 -40.81107967 33.32040222 -41 31 C-42.50070112 29.80547255 -42.50070112 29.80547255 -44.46484375 28.6875 C-45.18220703 28.25179688 -45.89957031 27.81609375 -46.63867188 27.3671875 C-47.39728516 26.91601562 -48.15589844 26.46484375 -48.9375 26 C-50.42850506 25.10870748 -51.91692719 24.21307542 -53.40234375 23.3125 C-54.39995728 22.71888672 -54.39995728 22.71888672 -55.41772461 22.11328125 C-57 21 -57 21 -58 19 C-56.52128418 18.50971313 -56.52128418 18.50971313 -55.01269531 18.00952148 C-50.42445228 16.48755243 -45.83709833 14.96291522 -41.25 13.4375 C-40.01881439 13.0282428 -40.01881439 13.0282428 -38.76275635 12.61071777 C-28.29515139 9.12897223 -17.84106092 5.62000637 -7.46191406 1.88061523 C-2.20166835 0 -2.20166835 0 0 0 Z " fill="#50AA8A" transform="translate(283,357)"/>
<path d="M0 0 C1.77734375 1.54296875 1.77734375 1.54296875 3 3 C3 3.66 3 4.32 3 5 C3.66 5 4.32 5 5 5 C5 2.36 5 -0.28 5 -3 C10.94 -3 16.88 -3 23 -3 C23.04534633 5.95415546 23.08197081 14.90823353 23.10362434 23.86247826 C23.11402163 28.02115552 23.12810595 32.17974954 23.15087891 36.33837891 C23.17275294 40.35842319 23.18459905 44.37838784 23.18975449 48.39848709 C23.19342428 49.9253324 23.20058981 51.45217381 23.21146011 52.97898483 C23.37590723 77.05388548 23.37590723 77.05388548 14.43359375 86.6875 C5.44664251 95.028058 -4.85667593 96.47091258 -16.6484375 96.28515625 C-24.51191557 95.94600754 -31.95675902 93.05945757 -38 88 C-44 81.16859122 -44 81.16859122 -44 77 C-41.87717331 75.99539469 -39.75166979 74.99644398 -37.625 74 C-36.44164062 73.443125 -35.25828125 72.88625 -34.0390625 72.3125 C-31 71 -31 71 -29 71 C-28.4225 71.928125 -27.845 72.85625 -27.25 73.8125 C-24.61196773 77.54971238 -23.34409886 78.60368251 -19 80 C-12.53051106 80.63983957 -6.45969704 80.95828035 -1 77 C2.86011647 73.05281324 3.7588837 69.53350558 4.25 64.1875 C4.32734375 63.49462891 4.4046875 62.80175781 4.484375 62.08789062 C4.67133957 60.39352419 4.83777927 58.6969142 5 57 C4.52691406 57.39832031 4.05382812 57.79664063 3.56640625 58.20703125 C-3.13118764 63.57293981 -9.88799861 66.70920686 -18.61328125 66.34375 C-27.16653987 65.11185678 -34.34809993 61.57384122 -40 55 C-47.13351918 44.18260375 -47.8269233 30.0411943 -45.3125 17.59765625 C-42.0967717 8.04426343 -37.06845015 2.10299253 -28.3671875 -2.87109375 C-18.86284528 -7.4036926 -8.53535221 -5.74962056 0 0 Z " fill="#06090F" transform="translate(687,466)"/>
<path d="M0 0 C7.59 0 15.18 0 23 0 C31.87190015 23.80302386 40.65173023 47.63848645 49.35839844 71.50244141 C50.811809 75.48567168 52.26875273 79.46759654 53.7265625 83.44921875 C54.4636537 85.46610489 55.20064466 87.48302768 55.9375 89.5 C56.42343628 90.82511597 56.42343628 90.82511597 56.91918945 92.17700195 C59 97.88546742 59 97.88546742 59 99 C52.4 99 45.8 99 39 99 C36.04925492 92.11492814 33.51940683 85.05433912 31 78 C11.695 77.505 11.695 77.505 -8 77 C-8.66 79.97 -9.32 82.94 -10 86 C-11.54315818 90.71832304 -13.28108297 95.34083014 -15 100 C-21.6 100 -28.2 100 -35 100 C-33.69591766 94.13162948 -32.48307896 89.14921628 -30.453125 83.6171875 C-30.20536819 82.93659271 -29.95761139 82.25599792 -29.7023468 81.55477905 C-28.88997064 79.32629533 -28.0699572 77.10070415 -27.25 74.875 C-26.67375932 73.29808473 -26.09817032 71.72093118 -25.52319336 70.14355469 C-24.61999841 67.66580524 -23.71644196 65.1881957 -22.81089783 62.71130371 C-20.59816229 56.65644246 -18.41088945 50.59280578 -16.23828125 44.5234375 C-15.9296817 43.66148773 -15.62108215 42.79953796 -15.3031311 41.91146851 C-14.09952606 38.54833906 -12.89656732 35.18497966 -11.69470215 31.82122803 C-7.89013757 21.17726447 -3.99272223 10.57499281 0 0 Z " fill="#070A10" transform="translate(346,434)"/>
<path d="M0 0 C6.52824165 4.61961234 10.93666751 10.0465649 13.59765625 17.609375 C13.59765625 18.929375 13.59765625 20.249375 13.59765625 21.609375 C4.68765625 22.599375 4.68765625 22.599375 -4.40234375 23.609375 C-5.12421875 22.35125 -5.84609375 21.093125 -6.58984375 19.796875 C-9.14736046 15.70773812 -11.51914824 13.47557107 -16.22265625 12.0625 C-22.02685867 10.85589161 -28.24287683 10.54126609 -33.52734375 13.484375 C-36.43557122 15.2979489 -36.43557122 15.2979489 -37.40234375 17.609375 C-37.71400489 19.64759992 -37.71400489 19.64759992 -37.77734375 21.921875 C-37.82632813 22.68113281 -37.8753125 23.44039063 -37.92578125 24.22265625 C-37.12611394 27.86890046 -35.25806814 29.28405433 -32.40234375 31.609375 C-29.17871814 33.09837215 -29.17871814 33.09837215 -25.58984375 34.109375 C-24.62111328 34.41282837 -24.62111328 34.41282837 -23.6328125 34.72241211 C-21.56070421 35.36820259 -19.48287696 35.99130464 -17.40234375 36.609375 C-15.25945666 37.24955947 -13.11744422 37.89207657 -10.9777832 38.54296875 C-9.63664203 38.9493656 -8.2928401 39.34712727 -6.94604492 39.734375 C0.79290548 42.05676084 8.61119452 45.98786765 12.84765625 53.109375 C16.22146539 59.85699329 16.68429137 66.89600867 14.984375 74.26953125 C12.32740465 81.84248197 7.8015599 87.2719348 0.7734375 91.1796875 C-11.30039796 96.82166669 -27.14367189 98.37180402 -39.90234375 93.859375 C-42.35546875 92.734375 -42.35546875 92.734375 -44.40234375 91.609375 C-46.01109375 90.743125 -46.01109375 90.743125 -47.65234375 89.859375 C-53.51021034 85.06657506 -58.11039588 79.88967998 -60.40234375 72.609375 C-60.58984375 69.171875 -60.58984375 69.171875 -60.40234375 66.609375 C-53.69071437 65.72916131 -47.16828394 65.49555545 -40.40234375 65.609375 C-40.11359375 66.82625 -39.82484375 68.043125 -39.52734375 69.296875 C-38.08864382 73.06426133 -36.48020429 74.65138125 -32.96484375 76.609375 C-25.7992765 79.70573691 -18.26043201 79.77740118 -10.83984375 77.421875 C-7.10717761 75.45374195 -5.83293231 74.54349354 -4.40234375 70.609375 C-4.0112932 66.95956986 -4.13097226 64.38730661 -5.33984375 60.921875 C-11.21794286 54.33127903 -22.00789579 52.97950707 -30.23046875 50.98632812 C-41.25317983 48.16137354 -50.14421253 43.3399695 -56.33984375 33.546875 C-58.77278674 26.82587 -58.79658845 17.69710469 -55.83984375 11.171875 C-50.81209714 2.97331955 -43.63850337 -1.93158375 -34.59765625 -5.00390625 C-23.03120432 -7.04141291 -10.24020143 -5.92766132 0 0 Z " fill="#070910" transform="translate(587.40234375,438.390625)"/>
<path d="M0 0 C4.94906791 4.00924491 7.32911518 9.16560433 8.625 15.3125 C8.71008333 17.02271712 8.74276382 18.73591518 8.73852539 20.44824219 C8.73844986 21.46899841 8.73837433 22.48975464 8.73829651 23.54144287 C8.73313522 24.63636047 8.72797394 25.73127808 8.72265625 26.859375 C8.7212413 27.9857135 8.71982635 29.112052 8.71836853 30.27252197 C8.71277199 33.86920835 8.7002201 37.46583244 8.6875 41.0625 C8.68248455 43.50130118 8.67792172 45.94010334 8.67382812 48.37890625 C8.66280369 54.35679483 8.6455414 60.33463685 8.625 66.3125 C3.345 66.3125 -1.935 66.3125 -7.375 66.3125 C-7.87 62.8475 -7.87 62.8475 -8.375 59.3125 C-8.87128906 59.79460937 -9.36757813 60.27671875 -9.87890625 60.7734375 C-17.17004499 67.55267466 -23.28340425 68.79156016 -33.1484375 68.6328125 C-39.72434198 67.97999874 -45.75746959 65.06195985 -50.375 60.3125 C-54.65887493 54.37989689 -55.24505433 48.4711749 -54.375 41.3125 C-52.56930492 35.44399099 -48.31446623 31.73881989 -43.375 28.3125 C-33.32626299 23.17218453 -20.41906775 22.90679955 -9.375 23.3125 C-10.4773778 16.17165608 -10.4773778 16.17165608 -14.375 10.3125 C-20.03676365 8.42524545 -25.48495202 8.40122686 -30.875 11 C-33.8230772 13.3949658 -33.8230772 13.3949658 -35.375 18.3125 C-41.315 18.3125 -47.255 18.3125 -53.375 18.3125 C-51.28210567 9.82465076 -49.18518703 4.22896456 -41.52734375 -0.4140625 C-28.42043387 -7.26798564 -12.72509103 -8.61643618 0 0 Z " fill="#06090F" transform="translate(852.375,466.6875)"/>
<path d="M0 0 C6.27993481 3.98534324 9.838668 10.09710629 11.55418396 17.33964539 C11.995631 19.97392853 12.12042085 22.39713087 12.11352539 25.06567383 C12.11344986 26.04631302 12.11337433 27.02695221 12.11329651 28.03730774 C12.10813522 29.0833165 12.10297394 30.12932526 12.09765625 31.20703125 C12.0962413 32.28756271 12.09482635 33.36809418 12.09336853 34.48136902 C12.0877808 37.92510776 12.0752305 41.36878098 12.0625 44.8125 C12.05748342 47.15038968 12.05292079 49.48828039 12.04882812 51.82617188 C12.03781538 57.55080642 12.02055912 63.2753921 12 69 C6.06 69 0.12 69 -6 69 C-6.01458252 67.70376709 -6.02916504 66.40753418 -6.04418945 65.07202148 C-6.10235099 60.24297092 -6.17958291 55.41437793 -6.26245117 50.58569336 C-6.29561661 48.49950613 -6.32367443 46.41323098 -6.34643555 44.3269043 C-6.38013569 41.32042121 -6.43245968 38.31473775 -6.48828125 35.30859375 C-6.49467117 34.38227646 -6.5010611 33.45595917 -6.50764465 32.50157166 C-6.64907507 26.21117425 -7.45050399 21.18687001 -11.5 16.125 C-15.17689826 13.36732631 -19.61483488 13.5356884 -24 14 C-28.36815669 15.78697319 -31.1032368 18.70624479 -33 23 C-33.59425444 26.54896237 -33.60484877 30.05576211 -33.609375 33.6484375 C-33.62591125 34.66096588 -33.64244751 35.67349426 -33.65948486 36.71670532 C-33.7078927 39.93619904 -33.72932031 43.15522062 -33.75 46.375 C-33.77816563 48.56382574 -33.80809389 50.75262956 -33.83984375 52.94140625 C-33.91365013 58.29423196 -33.96326916 63.64679668 -34 69 C-39.61 69 -45.22 69 -51 69 C-51 45.9 -51 22.8 -51 -1 C-45.72 -1 -40.44 -1 -35 -1 C-34.67 1.64 -34.34 4.28 -34 7 C-33.0409375 5.63875 -33.0409375 5.63875 -32.0625 4.25 C-24.05000669 -5.22135064 -10.51355794 -5.06132143 0 0 Z " fill="#06090F" transform="translate(776,464)"/>
<path d="M0 0 C4.00601819 3.2909184 6.8751658 6.41037841 8.64453125 11.38671875 C8.64453125 12.70671875 8.64453125 14.02671875 8.64453125 15.38671875 C5.89288693 15.52189778 3.14788604 15.62087126 0.39453125 15.69921875 C-0.38277344 15.74111328 -1.16007813 15.78300781 -1.9609375 15.82617188 C-4.19653621 15.87394108 -6.1671445 15.85444791 -8.35546875 15.38671875 C-10.71484375 12.9296875 -10.71484375 12.9296875 -12.35546875 10.38671875 C-16.68306389 8.94418704 -20.83285735 8.83219474 -25.35546875 9.38671875 C-28.44238452 11.18189598 -28.44238452 11.18189598 -30.35546875 13.38671875 C-30.24754054 16.29100805 -30.24754054 16.29100805 -29.35546875 19.38671875 C-24.19894112 23.64973533 -16.92056566 24.14398654 -10.546875 25.40429688 C-2.86313359 27.01945068 4.23955512 29.17630127 8.765625 36.0625 C11.07740414 42.17587149 10.78577761 49.65234524 8.29296875 55.625 C3.96943774 62.86845123 -1.96006307 65.5151684 -9.9609375 67.69140625 C-20.55082804 69.8605668 -31.56531008 68.68644305 -40.84765625 62.80859375 C-45.2762067 59.20735492 -47.70808492 55.84367767 -49.35546875 50.38671875 C-49.35546875 49.06671875 -49.35546875 47.74671875 -49.35546875 46.38671875 C-46.60521358 46.05644793 -43.86248892 45.77173041 -41.10546875 45.51171875 C-39.93951172 45.36476563 -39.93951172 45.36476563 -38.75 45.21484375 C-36.47967584 45.02079895 -34.58974418 44.92591374 -32.35546875 45.38671875 C-30.05859375 48.25390625 -30.05859375 48.25390625 -28.35546875 51.38671875 C-24.12921389 54.33151883 -19.30141449 53.87741888 -14.35546875 53.38671875 C-10.79775008 52.48701497 -10.79775008 52.48701497 -8.35546875 50.38671875 C-7.11496068 47.44562017 -7.11496068 47.44562017 -7.35546875 44.38671875 C-9.63656141 41.26361202 -12.11431041 40.70745527 -15.79296875 39.88671875 C-17.39205078 39.51160156 -17.39205078 39.51160156 -19.0234375 39.12890625 C-21.19076699 38.64614822 -23.35997712 38.17173172 -25.53125 37.70703125 C-34.22198312 35.74140165 -41.27806767 33.10436839 -46.35546875 25.38671875 C-48.4364636 19.14373419 -48.35475127 12.51842804 -45.41796875 6.57421875 C-41.70688818 0.70797807 -36.37403999 -2.33619342 -30.10546875 -4.98828125 C-19.35834882 -6.7794679 -9.20321162 -6.30336053 0 0 Z " fill="#080A10" transform="translate(952.35546875,466.61328125)"/>
<path d="M0 0 C7.47778756 5.10459749 11.74230751 11.10049375 13.875 19.875 C10.31413342 21.06195553 6.90168976 21.22595418 3.1875 21.4375 C2.1346582 21.50227539 2.1346582 21.50227539 1.06054688 21.56835938 C-0.66775206 21.6741736 -2.3963511 21.77506581 -4.125 21.875 C-4.66125 20.781875 -5.1975 19.68875 -5.75 18.5625 C-7.93683952 14.78523175 -9.88701082 13.26049646 -14.125 11.875 C-19.48552519 11.11380542 -23.56737924 11.7675313 -28.125 14.875 C-34.2247585 22.78820021 -33.78247979 31.31208599 -33.125 40.875 C-32.32394425 45.32811307 -30.9177543 48.10206456 -27.625 51.3125 C-23.37393605 53.96941497 -20.07279247 54.20485283 -15.125 53.875 C-11.38990162 52.8813988 -11.38990162 52.8813988 -8.125 50.875 C-7.58746094 49.84375 -7.04992187 48.8125 -6.49609375 47.75 C-4.125 44.875 -4.125 44.875 -2.12036133 44.48095703 C0.32904125 44.50926787 2.69267388 44.71116127 5.125 45 C5.96546875 45.07476562 6.8059375 45.14953125 7.671875 45.2265625 C9.74231201 45.41478405 11.80921142 45.64121734 13.875 45.875 C12.98411575 52.92108452 10.17773748 57.96304444 4.828125 62.6796875 C-4.02976299 68.99328851 -13.36867986 70.90076828 -24.125 69.875 C-33.19250397 68.28188071 -41.07387266 64.18950264 -46.5 56.625 C-53.04687037 45.62262062 -53.56245105 33.27832562 -51.65625 20.80859375 C-49.60034245 12.98880254 -45.05998528 5.22952564 -38.125 0.875 C-26.12600665 -5.12449667 -12.14341089 -6.90918206 0 0 Z " fill="#070910" transform="translate(511.125,465.125)"/>
<path d="M0 0 C5.94 0 11.88 0 18 0 C18 32.67 18 65.34 18 99 C12.06 99 6.12 99 0 99 C0 66.33 0 33.66 0 0 Z " fill="#04070D" transform="translate(875,434)"/>
<path d="M0 0 C0 5.61 0 11.22 0 17 C-1.815 17.0825 -3.63 17.165 -5.5 17.25 C-10.99425748 17.72353105 -15.60472934 18.51028762 -20 22 C-24.07752415 28.18205274 -24.16770955 34.63489038 -24.31640625 41.80078125 C-24.33718735 42.63715622 -24.35796844 43.47353119 -24.37937927 44.33525085 C-24.44451034 46.99425421 -24.5035895 49.65335228 -24.5625 52.3125 C-24.60571992 54.12045231 -24.6493353 55.92839522 -24.69335938 57.73632812 C-24.80089485 62.15745663 -24.90023865 66.57866194 -25 71 C-30.94 71 -36.88 71 -43 71 C-43 47.9 -43 24.8 -43 1 C-37.39 1 -31.78 1 -26 1 C-25.67 3.97 -25.34 6.94 -25 10 C-24.38125 9.0925 -23.7625 8.185 -23.125 7.25 C-17.16983451 0.17090187 -8.67727678 -0.49584439 0 0 Z " fill="#060910" transform="translate(455,462)"/>
<path d="M0 0 C5.94 0 11.88 0 18 0 C18 23.1 18 46.2 18 70 C12.06 70 6.12 70 0 70 C0 46.9 0 23.8 0 0 Z " fill="#04070D" transform="translate(612,463)"/>
<path d="M0 0 C4.82155358 4.46875698 7.23640305 8.63290381 7.80078125 15.109375 C7.98633596 22.64875601 7.38592575 28.2857746 2.1015625 33.9375 C-0.54391183 36.30096946 -2.87990285 38.05158208 -6.4375 38.375 C-8.0771875 38.5296875 -8.0771875 38.5296875 -9.75 38.6875 C-14.20349728 38.31008498 -16.98241398 37.17850652 -20.4375 34.375 C-26.20071521 26.94348566 -26.29428984 19.42307733 -25.4375 10.375 C-24.23602283 7.21590365 -22.71049933 4.85929222 -20.4375 2.375 C-19.94894531 1.83359375 -19.46039062 1.2921875 -18.95703125 0.734375 C-14.15448171 -3.56199322 -5.36182332 -2.53468012 0 0 Z " fill="#FBFCFC" transform="translate(684.4375,478.625)"/>
<path d="M0 0 C2.25981625 3.38972437 3.48849564 6.84711975 4.8203125 10.66015625 C5.21559647 11.77867226 5.21559647 11.77867226 5.61886597 12.91978455 C6.17387629 14.49341889 6.72681798 16.06778416 7.27783203 17.64282227 C8.12370097 20.05878971 8.97736635 22.47189771 9.83203125 24.88476562 C10.37025798 26.41389845 10.90803393 27.94319002 11.4453125 29.47265625 C11.70152374 30.19663101 11.95773499 30.92060577 12.22171021 31.66651917 C14 36.76932614 14 36.76932614 14 39 C5.09 39 -3.82 39 -13 39 C-9.625 26.625 -9.625 26.625 -7.51953125 20.80078125 C-7.07802734 19.57294922 -6.63652344 18.34511719 -6.18164062 17.08007812 C-5.72535398 15.82418475 -5.26897268 14.56832577 -4.8125 13.3125 C-4.34401174 12.01381225 -3.8759104 10.71498485 -3.40820312 9.41601562 C-2.27591396 6.27595598 -1.13977817 3.13734732 0 0 Z " fill="#F8F9F9" transform="translate(357,455)"/>
<path d="M0 0 C0.62198953 9.70994764 0.62198953 9.70994764 -1.6875 14.5 C-5.62088033 18.75230306 -9.51035811 20.8121025 -15.3125 21.25 C-19.35903026 20.97565897 -21.61542248 20.20391094 -25 18 C-26.78279682 15.64994965 -27.00113938 13.99234991 -27.4375 11.0625 C-26.83802064 6.86614451 -25.29870388 5.58159434 -22 3 C-15.17747969 -0.1011456 -7.3852768 -0.15713355 0 0 Z " fill="#F9F9FA" transform="translate(843,501)"/>
<path d="M0 0 C2.93885125 1.3081843 3.83082906 2.39699487 6 5 C7.4949461 9.11321329 7.26538023 12.17263812 5.9375 16.3125 C3.52954361 19.65256854 1.92303116 20.74166925 -2 22 C-6.47142617 22.28932758 -9.25741766 21.5213876 -12.9375 18.9375 C-15.4962858 15.29316871 -16.46184073 12.45284175 -16 8 C-12.22339227 0.71654223 -7.871278 -1.27388656 0 0 Z " fill="#0A0C13" transform="translate(625,432)"/>
<path d="M0 0 C5.61 0 11.22 0 17 0 C17 3.63 17 7.26 17 11 C17.66 11.33 18.32 11.66 19 12 C18.01 12.33 17.02 12.66 16 13 C14.28533964 9.57067929 14.94595944 5.78283935 15 2 C10.71 2 6.42 2 2 2 C2 24.11 2 46.22 2 69 C6.95 69 11.9 69 17 69 C16.98952637 67.8039917 16.97905273 66.6079834 16.96826172 65.37573242 C16.93208595 60.94216907 16.90910834 56.50861879 16.89013672 52.07495117 C16.88007361 50.15533251 16.86642184 48.23572919 16.84912109 46.31616211 C16.82488636 43.55839248 16.81352008 40.80082536 16.8046875 38.04296875 C16.79436493 37.18350143 16.78404236 36.32403412 16.77340698 35.43852234 C16.77325592 34.63791885 16.77310486 33.83731537 16.77294922 33.01245117 C16.768508 32.3085173 16.76406677 31.60458344 16.75949097 30.87931824 C17 29 17 29 19 26 C18.67 40.52 18.34 55.04 18 70 C12.06 70 6.12 70 0 70 C0 46.9 0 23.8 0 0 Z " fill="#1E1F21" transform="translate(412,463)"/>
<path d="M0 0 C2 2 2 2 2.24050903 4.21463013 C2.23606781 5.13396332 2.23162659 6.05329651 2.22705078 7.00048828 C2.22682419 8.56188034 2.22682419 8.56188034 2.22659302 10.15481567 C2.21627045 11.28192963 2.20594788 12.40904358 2.1953125 13.5703125 C2.1924826 14.72167694 2.18965271 15.87304138 2.18673706 17.05929565 C2.17551408 20.74796812 2.15040556 24.43640053 2.125 28.125 C2.11497294 30.62109025 2.10584662 33.1171843 2.09765625 35.61328125 C2.07556784 41.74226984 2.04206947 47.87111777 2 54 C-1 55 -1 55 -3.69921875 53.78515625 C-4.68535156 53.21667969 -5.67148438 52.64820313 -6.6875 52.0625 C-7.68136719 51.49660156 -8.67523438 50.93070313 -9.69921875 50.34765625 C-10.83810547 49.68056641 -10.83810547 49.68056641 -12 49 C-11.01 48.505 -11.01 48.505 -10 48 C-6.7 49.65 -3.4 51.3 0 53 C0 35.51 0 18.02 0 0 Z " fill="#206063" transform="translate(129,522)"/>
<path d="M0 0 C0.66 0 1.32 0 2 0 C2 19.8 2 39.6 2 60 C0.02 58.68 -1.96 57.36 -4 56 C-3.01 56 -2.02 56 -1 56 C-0.85718838 48.50692482 -0.71481674 41.01384137 -0.57275391 33.52075195 C-0.52435321 30.97061981 -0.47585103 28.42048959 -0.42724609 25.87036133 C-0.35748166 22.20915213 -0.28807974 18.54793621 -0.21875 14.88671875 C-0.19687622 13.7428923 -0.17500244 12.59906586 -0.15246582 11.420578 C-0.13244507 10.35970474 -0.11242432 9.29883148 -0.09179688 8.20581055 C-0.07403198 7.27093307 -0.05626709 6.3360556 -0.03796387 5.37284851 C-0.00931292 3.58208348 0 1.79099421 0 0 Z " fill="#3CA47E" transform="translate(281,357)"/>
<path d="M0 0 C2.81932732 3.49240997 5.57121638 7.02352424 8.25 10.625 C8.95640625 11.56601562 9.6628125 12.50703125 10.390625 13.4765625 C12 16 12 16 12 19 C11.01 19 10.02 19 9 19 C8.67 19.33 8.34 19.66 8 20 C8.77537109 21.58941406 8.77537109 21.58941406 9.56640625 23.2109375 C10.23218567 24.5987594 10.89752771 25.98679118 11.5625 27.375 C11.90474609 28.07367187 12.24699219 28.77234375 12.59960938 29.4921875 C13.46030712 31.30052216 14.23652436 33.14851956 15 35 C14.67 35.66 14.34 36.32 14 37 C1.59252767 13.29341514 1.59252767 13.29341514 0 0 Z " fill="#256265" transform="translate(66,519)"/>
<path d="M0 0 C0 3 0 3 -2.1875 5.48046875 C-3.115625 6.37378906 -4.04375 7.26710938 -5 8.1875 C-5.928125 9.08855469 -6.85625 9.98960937 -7.8125 10.91796875 C-8.534375 11.60503906 -9.25625 12.29210937 -10 13 C-8.35 12.67 -6.7 12.34 -5 12 C-7.40689803 14.72675159 -9.92471023 16.11966596 -13.1875 17.6875 C-14.53908203 18.34298828 -14.53908203 18.34298828 -15.91796875 19.01171875 C-16.94857422 19.50091797 -16.94857422 19.50091797 -18 20 C-18 18 -18 18 -15.92578125 15.80078125 C-14.95208712 14.86555405 -13.9766689 13.93212018 -13 13 C-11.88666023 11.891992 -10.77609769 10.78118815 -9.66796875 9.66796875 C-6.4453125 6.4453125 -3.22265625 3.22265625 0 0 Z " fill="#39A07A" transform="translate(104,508)"/>
<path d="M0 0 C-1.82337891 0.09087891 -1.82337891 0.09087891 -3.68359375 0.18359375 C-5.26824228 0.26798332 -6.85287702 0.3526321 -8.4375 0.4375 C-9.23994141 0.47681641 -10.04238281 0.51613281 -10.86914062 0.55664062 C-14.75239561 0.4054296 -14.75239561 0.4054296 -18 2 C-20.67058851 2.14115161 -23.32432238 2.04247107 -26 2 C-18.91332911 -2.72444726 -7.57322101 -4.55477731 0 0 Z " fill="#131416" transform="translate(502,463)"/>
<path d="M0 0 C3.63 0 7.26 0 11 0 C11.66 2.31 12.32 4.62 13 7 C12.01 7.495 12.01 7.495 11 8 C11 7.34 11 6.68 11 6 C10.34 6 9.68 6 9 6 C9 4.35 9 2.7 9 1 C8.2575 1.20625 7.515 1.4125 6.75 1.625 C4 2 4 2 0 0 Z " fill="#131417" transform="translate(536,504)"/>
<path d="M0 0 C1.67225729 0.30404678 3.33753959 0.64628502 5 1 C7.66309588 1.36987443 10.32983351 1.68320059 13 2 C12.67 2.66 12.34 3.32 12 4 C10.39504433 3.88557539 8.79101881 3.75805306 7.1875 3.625 C6.29417969 3.55539062 5.40085937 3.48578125 4.48046875 3.4140625 C2 3 2 3 -1 1 C-0.67 0.67 -0.34 0.34 0 0 Z " fill="#0F1013" transform="translate(660,558)"/>
<path d="M0 0 C0 0.33 0 0.66 0 1 C-4.455 1.495 -4.455 1.495 -9 2 C-9 2.33 -9 2.66 -9 3 C-11.97 2.67 -14.94 2.34 -18 2 C-18 1.67 -18 1.34 -18 1 C-12.03325384 -0.32594359 -6.07416385 -0.0884587 0 0 Z " fill="#17181D" transform="translate(838,461)"/>
<path d="M0 0 C0.66 0 1.32 0 2 0 C1.47462276 5.0302076 0.89405214 10.01885239 0 15 C-0.33 15 -0.66 15 -1 15 C-2.51708428 4.44191344 -2.51708428 4.44191344 0 0 Z " fill="#111217" transform="translate(532,449)"/>
<path d="M0 0 C4.40114397 0.50298788 6.71195019 2.08772731 10 5 C6.28111761 4.49287967 3.26545761 3.88391785 0 2 C0 1.34 0 0.68 0 0 Z " fill="#101113" transform="translate(580,436)"/>
<path d="M0 0 C-1.65 0.66 -3.3 1.32 -5 2 C-4.01 3.485 -4.01 3.485 -3 5 C-7.875 3.25 -7.875 3.25 -9 1 C-5.57367167 -0.61798838 -3.61944899 -1.34053666 0 0 Z " fill="#3CA37D" transform="translate(234,375)"/>
<path d="M0 0 C-2.63904371 1.41377341 -5.07120629 2.37240135 -8 3 C-8 2.01 -8 1.02 -8 0 C-4.94736336 -0.98120464 -3.05263664 -0.98120464 0 0 Z " fill="#18181C" transform="translate(822,493)"/>
</svg>
