<svg id="svg" version="1.1" xmlns="http://www.w3.org/2000/svg" xmlns:xlink="http://www.w3.org/1999/xlink" width="400" height="400" viewBox="0, 0, 400,400"><g id="svgg"><path id="path0" d="M311.328 60.739 C 305.635 62.751,290.957 67.858,278.711 72.088 C 251.804 81.382,252.471 81.136,252.188 81.873 C 252.020 82.313,254.743 84.298,262.699 89.533 C 268.605 93.419,273.438 96.736,273.438 96.904 C 273.438 97.071,268.311 104.121,262.045 112.569 C 255.779 121.017,247.134 132.676,242.835 138.477 C 234.571 149.626,214.359 176.594,208.196 184.694 C 203.767 190.516,202.246 191.954,200.823 191.667 C 199.700 191.441,184.549 184.393,169.249 176.980 C 162.633 173.774,159.149 172.285,158.643 172.445 C 157.678 172.752,147.391 183.590,105.052 228.907 C 83.026 252.483,83.594 251.839,83.594 253.254 C 83.594 257.687,87.732 255.695,128.906 231.444 C 154.052 216.633,160.636 212.853,161.636 212.654 C 163.184 212.345,164.910 213.205,177.930 220.769 C 202.125 234.825,207.776 237.960,209.266 238.153 C 211.364 238.426,210.808 239.074,229.122 214.982 C 231.711 211.576,243.408 196.221,255.115 180.859 C 266.821 165.498,282.441 144.932,289.826 135.156 C 297.210 125.381,303.413 117.207,303.611 116.992 C 303.843 116.740,304.339 117.030,305.013 117.814 C 321.356 136.830,321.636 137.125,322.529 136.232 C 323.165 135.596,324.427 77.191,324.126 62.305 L 324.023 57.227 322.852 57.154 C 322.205 57.114,317.040 58.721,311.328 60.739 M301.873 144.253 C 301.554 144.514,295.404 152.109,288.205 161.133 L 275.117 177.539 275.080 234.961 L 275.043 292.383 270.846 296.409 C 266.139 300.924,261.145 305.046,256.342 308.379 L 253.114 310.620 253.125 260.681 C 253.131 233.215,253.134 210.522,253.131 210.254 C 253.105 208.073,253.156 208.016,231.256 234.961 C 226.018 241.406,220.654 247.998,219.338 249.609 C 218.021 251.221,214.582 255.439,211.695 258.984 L 206.445 265.430 206.250 296.076 L 206.055 326.723 204.492 327.050 C 199.924 328.006,186.401 327.946,183.804 326.959 L 182.724 326.548 182.870 284.823 L 183.016 243.099 174.680 238.053 C 161.425 230.031,162.661 230.638,161.093 231.386 C 160.058 231.879,131.424 250.097,130.948 250.564 C 130.889 250.622,130.847 264.493,130.855 281.389 C 130.862 298.285,130.730 312.109,130.562 312.109 C 129.039 312.109,114.950 303.190,107.813 297.707 C 89.739 283.823,78.234 270.659,65.436 249.219 C 63.577 246.104,62.181 244.082,62.334 244.727 C 75.371 299.634,120.508 341.231,175.058 348.609 C 242.044 357.668,305.879 311.537,316.973 246.052 C 318.600 236.446,318.750 232.173,318.750 195.413 L 318.750 160.471 312.555 153.966 C 309.148 150.388,305.784 146.795,305.079 145.981 C 303.433 144.079,302.622 143.641,301.873 144.253 " stroke="none" fill="#398b86" fill-rule="evenodd"></path><path id="path1" d="M0.000 200.000 L 0.000 400.000 200.000 400.000 L 400.000 400.000 400.000 200.000 L 400.000 0.000 200.000 0.000 L 0.000 0.000 0.000 200.000 M324.002 57.530 C 324.512 58.308,324.540 60.838,324.230 77.550 C 324.034 88.071,323.763 105.117,323.627 115.430 C 323.376 134.553,323.198 136.719,321.878 136.719 C 321.424 136.719,318.027 133.071,312.631 126.789 C 304.698 117.553,304.057 116.904,303.463 117.511 C 303.112 117.870,296.246 126.865,288.205 137.500 C 280.165 148.135,263.939 169.492,252.148 184.961 C 240.357 200.430,227.903 216.777,224.473 221.289 C 210.971 239.049,211.312 238.688,208.560 238.138 C 207.534 237.933,196.825 231.894,171.409 217.189 C 161.100 211.225,166.178 209.667,133.781 228.729 C 104.197 246.136,87.399 255.549,85.801 255.617 C 84.247 255.682,82.894 253.935,83.420 252.542 C 83.840 251.431,90.675 244.020,127.734 204.492 C 160.434 169.612,157.863 172.266,158.963 172.266 C 159.464 172.266,164.639 174.574,170.464 177.396 C 189.544 186.639,199.960 191.406,201.074 191.406 C 202.860 191.406,203.394 190.809,213.370 177.647 C 227.277 159.299,272.265 98.734,272.947 97.441 C 273.310 96.753,272.319 96.003,262.653 89.648 C 256.771 85.781,251.957 82.402,251.956 82.138 C 251.951 81.232,253.773 80.528,275.977 72.863 C 288.223 68.635,303.691 63.270,310.352 60.940 C 324.085 56.136,323.229 56.350,324.002 57.530 M308.440 149.512 C 311.440 152.681,315.060 156.525,316.485 158.056 L 319.076 160.838 318.897 196.532 C 318.684 239.112,318.519 241.661,315.073 255.664 C 303.905 301.036,264.411 337.849,216.602 347.448 C 148.641 361.093,80.970 316.896,62.762 246.973 C 62.245 244.985,61.974 243.359,62.161 243.359 C 62.347 243.359,62.500 243.515,62.500 243.705 C 62.500 244.265,70.142 256.822,73.582 261.914 C 86.289 280.725,106.628 299.088,127.051 310.188 L 130.469 312.046 130.469 281.403 L 130.469 250.760 135.059 247.773 C 153.837 235.554,161.573 230.813,162.500 230.953 C 163.037 231.034,167.925 233.807,173.361 237.116 L 183.246 243.132 182.973 279.281 C 182.822 299.163,182.830 318.005,182.990 321.153 L 183.280 326.876 184.511 327.100 C 189.340 327.980,204.108 327.650,205.660 326.627 C 205.903 326.467,206.067 323.280,206.085 318.359 C 206.102 313.955,206.150 300.244,206.191 287.891 L 206.266 265.430 212.996 257.201 C 223.272 244.637,242.654 220.852,247.408 214.972 C 250.756 210.830,251.828 209.748,252.486 209.842 L 253.320 209.961 253.160 260.293 L 252.999 310.625 256.089 308.437 C 260.763 305.128,265.177 301.540,270.066 297.075 L 274.481 293.044 274.740 279.237 C 274.882 271.643,274.999 245.533,274.999 221.214 C 275.000 189.936,275.124 176.923,275.423 176.738 C 275.655 176.594,281.729 169.113,288.920 160.113 C 296.111 151.114,302.217 143.750,302.490 143.750 C 302.762 143.750,305.439 146.343,308.440 149.512 " stroke="none" fill="#fbfbfb" fill-rule="evenodd"></path><path id="path2" d="M324.347 63.086 C 324.349 64.590,324.419 65.157,324.504 64.347 C 324.588 63.536,324.587 62.306,324.501 61.612 C 324.414 60.919,324.345 61.582,324.347 63.086 M323.959 85.547 C 323.959 87.158,324.028 87.817,324.113 87.012 C 324.197 86.206,324.197 84.888,324.113 84.082 C 324.028 83.276,323.959 83.936,323.959 85.547 M323.574 111.719 C 323.574 113.545,323.641 114.292,323.724 113.379 C 323.806 112.466,323.806 110.972,323.724 110.059 C 323.641 109.146,323.574 109.893,323.574 111.719 M318.895 175.391 C 318.895 177.646,318.959 178.569,319.038 177.441 C 319.117 176.313,319.117 174.468,319.038 173.340 C 318.959 172.212,318.895 173.135,318.895 175.391 M137.280 194.238 L 136.133 195.508 137.402 194.361 C 138.101 193.729,138.672 193.158,138.672 193.091 C 138.672 192.789,138.350 193.055,137.280 194.238 M253.284 234.375 C 253.284 237.920,253.343 239.370,253.416 237.598 C 253.488 235.825,253.488 232.925,253.416 231.152 C 253.343 229.380,253.284 230.830,253.284 234.375 M182.966 266.797 C 182.966 269.697,183.027 270.884,183.102 269.434 C 183.177 267.983,183.177 265.610,183.102 264.160 C 183.027 262.710,182.966 263.896,182.966 266.797 M274.774 282.227 C 274.773 286.523,274.830 288.335,274.900 286.251 C 274.970 284.168,274.971 280.652,274.901 278.439 C 274.831 276.225,274.774 277.930,274.774 282.227 M130.644 299.023 C 130.644 306.328,130.697 309.261,130.761 305.541 C 130.825 301.822,130.825 295.845,130.761 292.260 C 130.697 288.675,130.644 291.719,130.644 299.023 M206.022 319.141 C 206.022 323.115,206.080 324.741,206.150 322.754 C 206.221 320.767,206.221 317.515,206.150 315.527 C 206.080 313.540,206.022 315.166,206.022 319.141 M182.941 324.023 C 182.942 325.527,183.013 326.095,183.098 325.284 C 183.182 324.474,183.181 323.243,183.094 322.550 C 183.008 321.856,182.939 322.520,182.941 324.023 " stroke="none" fill="#96c3c1" fill-rule="evenodd"></path><path id="path3" d="M323.919 81.641 C 323.919 82.393,323.999 82.700,324.097 82.324 C 324.196 81.948,324.196 81.333,324.097 80.957 C 323.999 80.581,323.919 80.889,323.919 81.641 M323.528 107.422 C 323.528 108.174,323.609 108.481,323.707 108.105 C 323.805 107.729,323.805 107.114,323.707 106.738 C 323.609 106.362,323.528 106.670,323.528 107.422 M318.867 169.531 C 318.867 170.713,318.940 171.196,319.030 170.605 C 319.119 170.015,319.119 169.048,319.030 168.457 C 318.940 167.866,318.867 168.350,318.867 169.531 M253.242 226.172 C 253.242 227.354,253.315 227.837,253.405 227.246 C 253.494 226.655,253.494 225.688,253.405 225.098 C 253.315 224.507,253.242 224.990,253.242 226.172 M182.919 260.156 C 182.919 261.123,182.995 261.519,183.088 261.035 C 183.181 260.552,183.181 259.761,183.088 259.277 C 182.995 258.794,182.919 259.189,182.919 260.156 M130.639 275.781 C 130.639 281.475,130.694 283.804,130.761 280.957 C 130.827 278.110,130.827 273.452,130.761 270.605 C 130.694 267.759,130.639 270.088,130.639 275.781 " stroke="none" fill="#80acac" fill-rule="evenodd"></path><path id="path4" d="M318.881 164.844 C 318.881 166.455,318.950 167.114,319.035 166.309 C 319.119 165.503,319.119 164.185,319.035 163.379 C 318.950 162.573,318.881 163.232,318.881 164.844 M253.282 217.578 C 253.282 220.908,253.342 222.271,253.415 220.605 C 253.489 218.940,253.489 216.216,253.415 214.551 C 253.342 212.886,253.282 214.248,253.282 217.578 M275.168 220.898 C 275.169 226.055,275.224 228.110,275.292 225.466 C 275.360 222.822,275.359 218.603,275.292 216.091 C 275.224 213.579,275.168 215.742,275.168 220.898 M130.631 258.594 C 130.631 262.568,130.689 264.194,130.760 262.207 C 130.831 260.220,130.831 256.968,130.760 254.980 C 130.689 252.993,130.631 254.619,130.631 258.594 M182.924 256.836 C 182.927 257.910,183.003 258.303,183.093 257.709 C 183.183 257.116,183.180 256.237,183.087 255.756 C 182.995 255.276,182.921 255.762,182.924 256.836 " stroke="none" fill="#7ca4ac" fill-rule="evenodd"></path></g></svg>